
<svg width="460" height="480" viewBox="0 0 460 480" xmlns="http://www.w3.org/2000/svg" role="img" aria-label="私有仓库语言占比统计卡片">
  <rect width="100%" height="100%" fill="#0d1117" rx="20" ry="20"/>
  <text x="20" y="28" font-size="24" fill="#58a6ff" font-weight="bold" font-family="Segoe UI, Tahoma, Geneva, Verdana, sans-serif">
    私有仓库语言占比
  </text>
  
      <text x="20" y="34" font-size="16" fill="#cdd9e5" font-family="Segoe UI, Tahoma, Geneva, Verdana, sans-serif" font-weight="600">JavaScript</text>
      <text x="330" y="34" font-size="16" fill="#8b949e" font-family="Segoe UI, Tahoma, Geneva, Verdana, sans-serif">41.6%</text>
      <rect x="20" y="40" width="300" height="16" fill="#30363d" rx="8" ry="8" />
      <rect x="20" y="40" width="124.70046750271928" height="16" fill="#f1e05a" rx="8" ry="8" />
    

      <text x="20" y="64" font-size="16" fill="#cdd9e5" font-family="Segoe UI, Tahoma, Geneva, Verdana, sans-serif" font-weight="600">Go</text>
      <text x="330" y="64" font-size="16" fill="#8b949e" font-family="Segoe UI, Tahoma, Geneva, Verdana, sans-serif">34.2%</text>
      <rect x="20" y="70" width="300" height="16" fill="#30363d" rx="8" ry="8" />
      <rect x="20" y="70" width="102.5816155090448" height="16" fill="#00ADD8" rx="8" ry="8" />
    

      <text x="20" y="94" font-size="16" fill="#cdd9e5" font-family="Segoe UI, Tahoma, Geneva, Verdana, sans-serif" font-weight="600">HTML</text>
      <text x="330" y="94" font-size="16" fill="#8b949e" font-family="Segoe UI, Tahoma, Geneva, Verdana, sans-serif">8.1%</text>
      <rect x="20" y="100" width="300" height="16" fill="#30363d" rx="8" ry="8" />
      <rect x="20" y="100" width="24.40120652232938" height="16" fill="#e34c26" rx="8" ry="8" />
    

      <text x="20" y="124" font-size="16" fill="#cdd9e5" font-family="Segoe UI, Tahoma, Geneva, Verdana, sans-serif" font-weight="600">Less</text>
      <text x="330" y="124" font-size="16" fill="#8b949e" font-family="Segoe UI, Tahoma, Geneva, Verdana, sans-serif">6.5%</text>
      <rect x="20" y="130" width="300" height="16" fill="#30363d" rx="8" ry="8" />
      <rect x="20" y="130" width="19.365637809632105" height="16" fill="#6e6e6e" rx="8" ry="8" />
    

      <text x="20" y="154" font-size="16" fill="#cdd9e5" font-family="Segoe UI, Tahoma, Geneva, Verdana, sans-serif" font-weight="600">Vue</text>
      <text x="330" y="154" font-size="16" fill="#8b949e" font-family="Segoe UI, Tahoma, Geneva, Verdana, sans-serif">3.4%</text>
      <rect x="20" y="160" width="300" height="16" fill="#30363d" rx="8" ry="8" />
      <rect x="20" y="160" width="10.300067303277784" height="16" fill="#6e6e6e" rx="8" ry="8" />
    

      <text x="20" y="184" font-size="16" fill="#cdd9e5" font-family="Segoe UI, Tahoma, Geneva, Verdana, sans-serif" font-weight="600">TypeScript</text>
      <text x="330" y="184" font-size="16" fill="#8b949e" font-family="Segoe UI, Tahoma, Geneva, Verdana, sans-serif">2.3%</text>
      <rect x="20" y="190" width="300" height="16" fill="#30363d" rx="8" ry="8" />
      <rect x="20" y="190" width="6.846076251816283" height="16" fill="#2b7489" rx="8" ry="8" />
    

      <text x="20" y="214" font-size="16" fill="#cdd9e5" font-family="Segoe UI, Tahoma, Geneva, Verdana, sans-serif" font-weight="600">Python</text>
      <text x="330" y="214" font-size="16" fill="#8b949e" font-family="Segoe UI, Tahoma, Geneva, Verdana, sans-serif">2.0%</text>
      <rect x="20" y="220" width="300" height="16" fill="#30363d" rx="8" ry="8" />
      <rect x="20" y="220" width="6.112651535222323" height="16" fill="#3572A5" rx="8" ry="8" />
    

      <text x="20" y="244" font-size="16" fill="#cdd9e5" font-family="Segoe UI, Tahoma, Geneva, Verdana, sans-serif" font-weight="600">Java</text>
      <text x="330" y="244" font-size="16" fill="#8b949e" font-family="Segoe UI, Tahoma, Geneva, Verdana, sans-serif">1.1%</text>
      <rect x="20" y="250" width="300" height="16" fill="#30363d" rx="8" ry="8" />
      <rect x="20" y="250" width="3.346667829526886" height="16" fill="#b07219" rx="8" ry="8" />
    

      <text x="20" y="274" font-size="16" fill="#cdd9e5" font-family="Segoe UI, Tahoma, Geneva, Verdana, sans-serif" font-weight="600">CSS</text>
      <text x="330" y="274" font-size="16" fill="#8b949e" font-family="Segoe UI, Tahoma, Geneva, Verdana, sans-serif">0.5%</text>
      <rect x="20" y="280" width="300" height="16" fill="#30363d" rx="8" ry="8" />
      <rect x="20" y="280" width="1.446971105666146" height="16" fill="#563d7c" rx="8" ry="8" />
    

      <text x="20" y="304" font-size="16" fill="#cdd9e5" font-family="Segoe UI, Tahoma, Geneva, Verdana, sans-serif" font-weight="600">Shell</text>
      <text x="330" y="304" font-size="16" fill="#8b949e" font-family="Segoe UI, Tahoma, Geneva, Verdana, sans-serif">0.3%</text>
      <rect x="20" y="310" width="300" height="16" fill="#30363d" rx="8" ry="8" />
      <rect x="20" y="310" width="0.8063887101631241" height="16" fill="#89e051" rx="8" ry="8" />
    

      <text x="20" y="334" font-size="16" fill="#cdd9e5" font-family="Segoe UI, Tahoma, Geneva, Verdana, sans-serif" font-weight="600">Dockerfile</text>
      <text x="330" y="334" font-size="16" fill="#8b949e" font-family="Segoe UI, Tahoma, Geneva, Verdana, sans-serif">0.0%</text>
      <rect x="20" y="340" width="300" height="16" fill="#30363d" rx="8" ry="8" />
      <rect x="20" y="340" width="0.05341477743019959" height="16" fill="#6e6e6e" rx="8" ry="8" />
    

      <text x="20" y="364" font-size="16" fill="#cdd9e5" font-family="Segoe UI, Tahoma, Geneva, Verdana, sans-serif" font-weight="600">Batchfile</text>
      <text x="330" y="364" font-size="16" fill="#8b949e" font-family="Segoe UI, Tahoma, Geneva, Verdana, sans-serif">0.0%</text>
      <rect x="20" y="370" width="300" height="16" fill="#30363d" rx="8" ry="8" />
      <rect x="20" y="370" width="0.02833649006001346" height="16" fill="#6e6e6e" rx="8" ry="8" />
    

      <text x="20" y="394" font-size="16" fill="#cdd9e5" font-family="Segoe UI, Tahoma, Geneva, Verdana, sans-serif" font-weight="600">Sass</text>
      <text x="330" y="394" font-size="16" fill="#8b949e" font-family="Segoe UI, Tahoma, Geneva, Verdana, sans-serif">0.0%</text>
      <rect x="20" y="400" width="300" height="16" fill="#30363d" rx="8" ry="8" />
      <rect x="20" y="400" width="0.010498653111665847" height="16" fill="#6e6e6e" rx="8" ry="8" />
    
  <text x="20" y="460" font-size="20" fill="#79c0ff" font-weight="bold" font-family="Segoe UI, Tahoma, Geneva, Verdana, sans-serif">
    总提交数: 1,329
  </text>
</svg>
  