
<svg width="460" height="420" viewBox="0 0 460 420" xmlns="http://www.w3.org/2000/svg" role="img" aria-label="私有仓库语言占比统计卡片">
  <rect width="100%" height="100%" fill="#0d1117" rx="20" ry="20"/>
  <text x="20" y="28" font-size="24" fill="#58a6ff" font-weight="bold" font-family="Segoe UI, Tahoma, Geneva, Verdana, sans-serif">
    私有仓库语言占比
  </text>
  
      <text x="20" y="34" font-size="16" fill="#cdd9e5" font-family="Segoe UI, Tahoma, Geneva, Verdana, sans-serif" font-weight="600">JavaScript</text>
      <text x="330" y="34" font-size="16" fill="#8b949e" font-family="Segoe UI, Tahoma, Geneva, Verdana, sans-serif">64.6%</text>
      <rect x="20" y="40" width="300" height="16" fill="#30363d" rx="8" ry="8" />
      <rect x="20" y="40" width="193.82993154177964" height="16" fill="#f1e05a" rx="8" ry="8" />
    

      <text x="20" y="64" font-size="16" fill="#cdd9e5" font-family="Segoe UI, Tahoma, Geneva, Verdana, sans-serif" font-weight="600">HTML</text>
      <text x="330" y="64" font-size="16" fill="#8b949e" font-family="Segoe UI, Tahoma, Geneva, Verdana, sans-serif">12.4%</text>
      <rect x="20" y="70" width="300" height="16" fill="#30363d" rx="8" ry="8" />
      <rect x="20" y="70" width="37.340059016781666" height="16" fill="#e34c26" rx="8" ry="8" />
    

      <text x="20" y="94" font-size="16" fill="#cdd9e5" font-family="Segoe UI, Tahoma, Geneva, Verdana, sans-serif" font-weight="600">Less</text>
      <text x="330" y="94" font-size="16" fill="#8b949e" font-family="Segoe UI, Tahoma, Geneva, Verdana, sans-serif">10.2%</text>
      <rect x="20" y="100" width="300" height="16" fill="#30363d" rx="8" ry="8" />
      <rect x="20" y="100" width="30.558582101566614" height="16" fill="#6e6e6e" rx="8" ry="8" />
    

      <text x="20" y="124" font-size="16" fill="#cdd9e5" font-family="Segoe UI, Tahoma, Geneva, Verdana, sans-serif" font-weight="600">Vue</text>
      <text x="330" y="124" font-size="16" fill="#8b949e" font-family="Segoe UI, Tahoma, Geneva, Verdana, sans-serif">3.7%</text>
      <rect x="20" y="130" width="300" height="16" fill="#30363d" rx="8" ry="8" />
      <rect x="20" y="130" width="11.09130151634283" height="16" fill="#6e6e6e" rx="8" ry="8" />
    

      <text x="20" y="154" font-size="16" fill="#cdd9e5" font-family="Segoe UI, Tahoma, Geneva, Verdana, sans-serif" font-weight="600">TypeScript</text>
      <text x="330" y="154" font-size="16" fill="#8b949e" font-family="Segoe UI, Tahoma, Geneva, Verdana, sans-serif">3.6%</text>
      <rect x="20" y="160" width="300" height="16" fill="#30363d" rx="8" ry="8" />
      <rect x="20" y="160" width="10.802968911804083" height="16" fill="#2b7489" rx="8" ry="8" />
    

      <text x="20" y="184" font-size="16" fill="#cdd9e5" font-family="Segoe UI, Tahoma, Geneva, Verdana, sans-serif" font-weight="600">Python</text>
      <text x="330" y="184" font-size="16" fill="#8b949e" font-family="Segoe UI, Tahoma, Geneva, Verdana, sans-serif">3.2%</text>
      <rect x="20" y="190" width="300" height="16" fill="#30363d" rx="8" ry="8" />
      <rect x="20" y="190" width="9.642004327066394" height="16" fill="#3572A5" rx="8" ry="8" />
    

      <text x="20" y="214" font-size="16" fill="#cdd9e5" font-family="Segoe UI, Tahoma, Geneva, Verdana, sans-serif" font-weight="600">Go</text>
      <text x="330" y="214" font-size="16" fill="#8b949e" font-family="Segoe UI, Tahoma, Geneva, Verdana, sans-serif">1.7%</text>
      <rect x="20" y="220" width="300" height="16" fill="#30363d" rx="8" ry="8" />
      <rect x="20" y="220" width="5.206086144558917" height="16" fill="#00ADD8" rx="8" ry="8" />
    

      <text x="20" y="244" font-size="16" fill="#cdd9e5" font-family="Segoe UI, Tahoma, Geneva, Verdana, sans-serif" font-weight="600">CSS</text>
      <text x="330" y="244" font-size="16" fill="#8b949e" font-family="Segoe UI, Tahoma, Geneva, Verdana, sans-serif">0.5%</text>
      <rect x="20" y="250" width="300" height="16" fill="#30363d" rx="8" ry="8" />
      <rect x="20" y="250" width="1.4453502732200707" height="16" fill="#563d7c" rx="8" ry="8" />
    

      <text x="20" y="274" font-size="16" fill="#cdd9e5" font-family="Segoe UI, Tahoma, Geneva, Verdana, sans-serif" font-weight="600">Shell</text>
      <text x="330" y="274" font-size="16" fill="#8b949e" font-family="Segoe UI, Tahoma, Geneva, Verdana, sans-serif">0.0%</text>
      <rect x="20" y="280" width="300" height="16" fill="#30363d" rx="8" ry="8" />
      <rect x="20" y="280" width="0.057697680771352046" height="16" fill="#89e051" rx="8" ry="8" />
    

      <text x="20" y="304" font-size="16" fill="#cdd9e5" font-family="Segoe UI, Tahoma, Geneva, Verdana, sans-serif" font-weight="600">Dockerfile</text>
      <text x="330" y="304" font-size="16" fill="#8b949e" font-family="Segoe UI, Tahoma, Geneva, Verdana, sans-serif">0.0%</text>
      <rect x="20" y="310" width="300" height="16" fill="#30363d" rx="8" ry="8" />
      <rect x="20" y="310" width="0.01926718232778722" height="16" fill="#6e6e6e" rx="8" ry="8" />
    

      <text x="20" y="334" font-size="16" fill="#cdd9e5" font-family="Segoe UI, Tahoma, Geneva, Verdana, sans-serif" font-weight="600">Batchfile</text>
      <text x="330" y="334" font-size="16" fill="#8b949e" font-family="Segoe UI, Tahoma, Geneva, Verdana, sans-serif">0.0%</text>
      <rect x="20" y="340" width="300" height="16" fill="#30363d" rx="8" ry="8" />
      <rect x="20" y="340" width="0.0067513037806262504" height="16" fill="#6e6e6e" rx="8" ry="8" />
    
  <text x="20" y="400" font-size="20" fill="#79c0ff" font-weight="bold" font-family="Segoe UI, Tahoma, Geneva, Verdana, sans-serif">
    总提交数: 671
  </text>
</svg>
  